# xmcd
#
# Track frame offsets: 
#        150
#        18342
#        36182
#        56645
#        79936
#        105202
#        127793
#        149534
#        166646
#        184305
#
# Disc length: 2739 seconds
#
# Revision: 0
# Processed by: cddbd v1.5.2PL0 Copyright (c) Steve Scherf et al.
# Submitted via: ExactAudioCopy v0.99pb5
#
DISCID=780ab10a
DTITLE=Dwayne Dopsie - Up in flames
DYEAR=2009
DGENRE=Blues
TTITLE0=I'm Gonna Walk
TTITLE1=Feel So Good
TTITLE2=Better Go Get It
TTITLE3=Just Come Back Home
TTITLE4=I'm A Fool For You
TTITLE5=Don't Listen
TTITLE6=Got My Mind Gone
TTITLE7=Start All Over
TTITLE8=Back In The Woods
TTITLE9=Take Over
EXTD=
EXTT0=
EXTT1=
EXTT2=
EXTT3=
EXTT4=
EXTT5=
EXTT6=
EXTT7=
EXTT8=
EXTT9=
PLAYORDER=
